<svg xmlns="http://www.w3.org/2000/svg" version="1.1" xmlns:xlink="http://www.w3.org/1999/xlink" xmlns:svgjs="http://svgjs.dev/svgjs" width="1000" height="1000" viewBox="0 0 1000 1000"><rect width="1000" height="1000" fill="#046380"></rect><g transform="matrix(0.7,0,0,0.7,149.57576155023327,399.7663199018509)"><svg viewBox="0 0 396 114" data-background-color="#046380" preserveAspectRatio="xMidYMid meet" height="287" width="1000" xmlns="http://www.w3.org/2000/svg" xmlns:xlink="http://www.w3.org/1999/xlink"><g id="tight-bounds" transform="matrix(1,0,0,1,0.2399977515823366,-0.12274996919364867)"><svg viewBox="0 0 395.52 114.24549993838731" height="114.24549993838731" width="395.52"><g><svg viewBox="0 0 571.2651083137678 165.00927360604618" height="114.24549993838731" width="395.52"><g transform="matrix(1,0,0,1,175.74510831376776,46.5908178102411)"><svg viewBox="0 0 395.52000000000004 71.82763798556398" height="71.82763798556398" width="395.52000000000004"><g id="textblocktransform"><svg viewBox="0 0 395.52000000000004 71.82763798556398" height="71.82763798556398" width="395.52000000000004" id="textblock"><g><svg viewBox="0 0 395.52000000000004 45.4761801611412" height="45.4761801611412" width="395.52000000000004"><g transform="matrix(1,0,0,1,0,0)"><svg width="395.52000000000004" viewBox="1.340000033378601 -35.5 369.6499938964844 42.51000213623047" height="45.4761801611412" data-palette-color="#ffffff"><path d="M27.49-9.69L31.2-3.59Q28.76-1.49 25.73-0.37 22.71 0.76 19.46 0.76L19.46 0.76Q16.97 0.76 14.66 0.11 12.35-0.54 10.34-1.72 8.33-2.91 6.67-4.57 5-6.23 3.82-8.24 2.64-10.25 1.99-12.56 1.34-14.87 1.34-17.36L1.34-17.36Q1.34-19.85 1.99-22.17 2.64-24.49 3.82-26.5 5-28.52 6.67-30.18 8.33-31.84 10.34-33.02 12.35-34.2 14.66-34.85 16.97-35.5 19.46-35.5L19.46-35.5Q22.71-35.5 25.73-34.39 28.76-33.28 31.2-31.15L31.2-31.15 27.49-25.05Q25.95-26.71 23.85-27.6 21.75-28.49 19.46-28.49L19.46-28.49Q17.14-28.49 15.11-27.61 13.09-26.73 11.57-25.23 10.06-23.73 9.18-21.69 8.3-19.65 8.3-17.36L8.3-17.36Q8.3-15.06 9.18-13.05 10.06-11.04 11.57-9.52 13.09-8.01 15.11-7.13 17.14-6.25 19.46-6.25L19.46-6.25Q21.75-6.25 23.85-7.14 25.95-8.03 27.49-9.69L27.49-9.69ZM59.76-7.01L59.76 0 35.25 0 35.25-35.01 42.26-35.01 42.26-7.01 59.76-7.01ZM70.41-35.01L70.41 0 63.4 0 63.4-35.01 70.41-35.01ZM104.9-35.01L104.9 0 97.4 0 83.9-23.05 83.9 0 76.9 0 76.9-35.01 84.39-35.01 97.89-11.94 97.89-35.01 104.9-35.01ZM118.4-35.01L118.4 0 111.39 0 111.39-35.01 118.4-35.01ZM149.08-1.1L154.5 7.01 146.55 7.01 142.35 0.71Q142 0.76 141.7 0.76 141.39 0.76 141.1 0.76L141.1 0.76Q138.61 0.76 136.3 0.11 134-0.54 131.98-1.72 129.97-2.91 128.31-4.57 126.65-6.23 125.46-8.24 124.28-10.25 123.63-12.56 122.99-14.87 122.99-17.36L122.99-17.36Q122.99-19.85 123.63-22.17 124.28-24.49 125.46-26.49 126.65-28.49 128.31-30.15 129.97-31.81 131.98-32.98 134-34.16 136.3-34.8 138.61-35.45 141.1-35.45L141.1-35.45Q143.59-35.45 145.91-34.8 148.23-34.16 150.23-32.98 152.23-31.81 153.89-30.15 155.55-28.49 156.73-26.49 157.9-24.49 158.54-22.17 159.19-19.85 159.19-17.36L159.19-17.36Q159.19-14.77 158.47-12.33 157.75-9.89 156.43-7.78 155.11-5.66 153.25-3.96 151.38-2.25 149.08-1.1L149.08-1.1ZM152.23-17.36L152.23-17.36Q152.23-19.65 151.35-21.69 150.48-23.73 148.97-25.23 147.47-26.73 145.43-27.61 143.4-28.49 141.1-28.49L141.1-28.49Q138.78-28.49 136.76-27.61 134.73-26.73 133.22-25.23 131.7-23.73 130.82-21.69 129.94-19.65 129.94-17.36L129.94-17.36Q129.94-15.06 130.82-13.05 131.7-11.04 133.22-9.52 134.73-8.01 136.76-7.13 138.78-6.25 141.1-6.25L141.1-6.25Q143.4-6.25 145.43-7.13 147.47-8.01 148.97-9.52 150.48-11.04 151.35-13.05 152.23-15.06 152.23-17.36ZM191.39-35.01L191.39-13.99Q191.39-11.08 190.29-8.53 189.19-5.98 187.29-4.09 185.39-2.2 182.83-1.1 180.28 0 177.38 0L177.38 0Q174.47 0 171.92-1.1 169.37-2.2 167.48-4.09 165.59-5.98 164.49-8.53 163.39-11.08 163.39-13.99L163.39-13.99 163.39-35.01 170.37-35.01 170.37-13.99Q170.37-12.55 170.92-11.28 171.47-10.01 172.42-9.06 173.37-8.11 174.66-7.56 175.94-7.01 177.38-7.01L177.38-7.01Q178.82-7.01 180.1-7.56 181.38-8.11 182.33-9.06 183.29-10.01 183.84-11.28 184.38-12.55 184.38-13.99L184.38-13.99 184.38-35.01 191.39-35.01ZM221.47-7.01L221.47 0 197.47 0 197.47-35.01 221.47-35.01 221.47-28 204.47-28 204.47-21 215.97-21 215.97-13.99 204.47-13.99 204.47-7.01 221.47-7.01ZM264.87-7.01L264.87 0 240.36 0 240.36-35.01 247.37-35.01 247.37-7.01 264.87-7.01ZM275.1-13.99L289.11-13.99 289.11-21Q289.11-22.44 288.56-23.72 288.01-25 287.06-25.95 286.11-26.9 284.83-27.45 283.54-28 282.1-28L282.1-28Q280.66-28 279.38-27.45 278.1-26.9 277.15-25.95 276.2-25 275.65-23.72 275.1-22.44 275.1-21L275.1-21 275.1-13.99ZM296.12-21L296.12 0 289.11 0 289.11-7.01 275.1-7.01 275.1 0 268.11 0 268.11-21Q268.11-23.9 269.21-26.45 270.31-29 272.2-30.91 274.1-32.81 276.65-33.91 279.2-35.01 282.1-35.01L282.1-35.01Q285.01-35.01 287.56-33.91 290.11-32.81 292.02-30.91 293.92-29 295.02-26.45 296.12-23.9 296.12-21L296.12-21ZM308.79-13.99L322.8-13.99 322.8-21Q322.8-22.44 322.25-23.72 321.7-25 320.75-25.95 319.8-26.9 318.51-27.45 317.23-28 315.79-28L315.79-28Q314.35-28 313.07-27.45 311.79-26.9 310.84-25.95 309.88-25 309.34-23.72 308.79-22.44 308.79-21L308.79-21 308.79-13.99ZM329.81-21L329.81 0 322.8 0 322.8-7.01 308.79-7.01 308.79 0 301.8 0 301.8-21Q301.8-23.9 302.9-26.45 304-29 305.89-30.91 307.79-32.81 310.34-33.91 312.89-35.01 315.79-35.01L315.79-35.01Q318.7-35.01 321.25-33.91 323.8-32.81 325.7-30.91 327.61-29 328.71-26.45 329.81-23.9 329.81-21L329.81-21ZM342.89-13.99L342.89 0 335.88 0 335.88-35.01 360.39-35.01 360.39-28 342.89-28 342.89-21 353.39-21 353.39-13.99 342.89-13.99ZM370.99-35.01L370.99 0 363.98 0 363.98-35.01 370.99-35.01Z" opacity="1" transform="matrix(1,0,0,1,0,0)" fill="#ffffff" class="undefined-text-0" data-fill-palette-color="primary" id="text-0"></path></svg></g></svg></g><g transform="matrix(1,0,0,1,0,56.212014868862774)"><svg viewBox="0 0 232.20979200000005 15.61562311670121" height="15.61562311670121" width="232.20979200000005"><g transform="matrix(1,0,0,1,0,0)"><svg width="232.20979200000005" viewBox="-0.4000000059604645 -36 699.5700073242188 47.04999923706055" height="15.61562311670121" data-palette-color="#ffffff"><path d="M29.55-33.85L16.9 0 12.25 0-0.4-33.85 5.95-33.85 10.15-21.75Q11.75-17.05 12.9-13.48 14.05-9.9 14.65-8L14.65-8Q15.2-9.9 16.32-13.38 17.45-16.85 19.15-21.65L19.15-21.65 23.5-33.85 29.55-33.85ZM39.75-25.5Q45.5-25.5 48.1-22.1 50.7-18.7 50.7-12.75L50.7-12.75Q50.7-9.95 50-7.53 49.3-5.1 47.87-3.33 46.45-1.55 44.3-0.53 42.15 0.5 39.3 0.5L39.3 0.5Q36.45 0.5 34.37-0.38 32.3-1.25 30.95-2.9 29.6-4.55 28.97-6.9 28.35-9.25 28.35-12.2L28.35-12.2Q28.35-15.05 29.05-17.48 29.75-19.9 31.17-21.68 32.6-23.45 34.75-24.48 36.9-25.5 39.75-25.5L39.75-25.5ZM39.25-21.3Q37.8-21.3 36.87-20.65 35.95-20 35.42-18.82 34.9-17.65 34.7-16.07 34.5-14.5 34.5-12.7L34.5-12.7Q34.5-10.85 34.72-9.2 34.95-7.55 35.55-6.33 36.15-5.1 37.17-4.4 38.2-3.7 39.8-3.7L39.8-3.7Q41.25-3.7 42.17-4.35 43.1-5 43.62-6.18 44.15-7.35 44.35-8.9 44.55-10.45 44.55-12.25L44.55-12.25Q44.55-14.1 44.32-15.75 44.1-17.4 43.5-18.65 42.9-19.9 41.87-20.6 40.85-21.3 39.25-21.3L39.25-21.3ZM52.95-20.85L52.95-24.9 57.45-24.9 58.45-30.75 63.15-31.8 63.15-24.9 69.3-24.9 68.6-20.85 63.15-20.85 63.15-6.05Q63.15-4.75 63.85-4.38 64.55-4 65.4-4L65.4-4Q66.1-4 66.8-4.1 67.5-4.2 68.05-4.35L68.05-4.35Q68.7-4.5 69.3-4.7L69.3-4.7 70.25-0.95 69.8-0.8Q69.35-0.6 68.47-0.38 67.6-0.15 66.42 0.03 65.25 0.2 63.85 0.2L63.85 0.2Q62.45 0.2 61.27-0.1 60.1-0.4 59.25-1.07 58.4-1.75 57.92-2.8 57.45-3.85 57.45-5.4L57.45-5.4 57.45-20.85 52.95-20.85ZM84.89-19.7Q83.99-19.7 83.09-19.25 82.19-18.8 81.49-18.03 80.79-17.25 80.34-16.15 79.89-15.05 79.89-13.7L79.89-13.7 79.89 0 74.19 0 74.19-12.6Q74.19-15.6 73.79-17.63 73.39-19.65 72.94-20.9L72.94-20.9Q72.39-22.35 71.74-23.25L71.74-23.25 76.24-25.05Q76.69-24.5 77.19-23.7L77.19-23.7Q77.59-23 77.99-22.05 78.39-21.1 78.64-19.8L78.64-19.8Q79.64-22.7 81.54-23.98 83.44-25.25 85.84-25.25L85.84-25.25Q86.99-25.25 87.99-24.98 88.99-24.7 88.94-24.7L88.94-24.7 87.34-19.15Q87.39-19.15 86.77-19.43 86.14-19.7 84.89-19.7L84.89-19.7ZM89.19-11.85Q89.19-15.2 90.12-17.75 91.04-20.3 92.67-22.03 94.29-23.75 96.49-24.63 98.69-25.5 101.24-25.5L101.24-25.5Q103.49-25.5 105.07-24.95 106.64-24.4 107.64-23.45 108.64-22.5 109.12-21.2 109.59-19.9 109.59-18.4L109.59-18.4Q109.59-16.6 108.59-14.98 107.59-13.35 105.72-12.13 103.84-10.9 101.19-10.18 98.54-9.45 95.24-9.4L95.24-9.4Q95.39-8.25 95.72-7.23 96.04-6.2 96.67-5.43 97.29-4.65 98.29-4.2 99.29-3.75 100.79-3.75L100.79-3.75Q101.89-3.75 103.14-4 104.39-4.25 105.44-4.6L105.44-4.6Q106.69-5 107.89-5.5L107.89-5.5 109.39-1.95Q108.09-1.3 106.59-0.8L106.59-0.8Q105.29-0.35 103.59 0 101.89 0.35 99.99 0.35L99.99 0.35Q97.09 0.35 95.04-0.53 92.99-1.4 91.69-3 90.39-4.6 89.79-6.85 89.19-9.1 89.19-11.85L89.19-11.85ZM100.79-21.6Q99.14-21.6 98.07-20.83 96.99-20.05 96.34-18.82 95.69-17.6 95.42-16.07 95.14-14.55 95.09-13L95.09-13Q97.49-13.1 99.17-13.63 100.84-14.15 101.89-14.93 102.94-15.7 103.42-16.6 103.89-17.5 103.89-18.4L103.89-18.4Q103.89-19.85 103.04-20.73 102.19-21.6 100.79-21.6L100.79-21.6ZM134.44-25.5L134.44-25.5Q135.89-25.5 137.29-25.2 138.69-24.9 139.79-24.5L139.79-24.5Q141.09-24.05 142.19-23.55L142.19-23.55 140.49-19.65Q139.49-20.1 138.49-20.45L138.49-20.45Q137.64-20.75 136.61-21.03 135.59-21.3 134.59-21.3L134.59-21.3Q133.44-21.3 132.61-20.75 131.79-20.2 131.79-19.1L131.79-19.1Q131.79-16.25 135.94-14.65L135.94-14.65Q137.49-14.05 138.74-13.38 139.99-12.7 140.86-11.8 141.74-10.9 142.19-9.73 142.64-8.55 142.64-6.95L142.64-6.95Q142.64-5.55 142.06-4.2 141.49-2.85 140.36-1.8 139.24-0.75 137.61-0.13 135.99 0.5 133.94 0.5L133.94 0.5Q132.29 0.5 130.69 0.13 129.09-0.25 127.81-0.7 126.54-1.15 125.79-1.55L125.79-1.55 125.04-1.9 126.89-6.1 127.54-5.75Q128.19-5.35 129.19-4.9 130.19-4.45 131.34-4.08 132.49-3.7 133.44-3.7L133.44-3.7Q135.19-3.7 136.04-4.4 136.89-5.1 136.89-6.25L136.89-6.25Q136.89-7.55 135.96-8.63 135.04-9.7 133.19-10.4L133.19-10.4Q129.34-11.85 127.66-13.7 125.99-15.55 125.99-18.5L125.99-18.5Q125.99-19.9 126.64-21.18 127.29-22.45 128.41-23.43 129.54-24.4 131.09-24.95 132.64-25.5 134.44-25.5ZM167.78-23.85L167.78-12.05Q167.78-9.05 168.16-7.03 168.53-5 168.98-3.75L168.98-3.75Q169.53-2.25 170.18-1.4L170.18-1.4 165.73 0.4Q165.08-0.25 164.53-1.15L164.53-1.15Q164.08-1.95 163.68-3.08 163.28-4.2 163.18-5.75L163.18-5.75Q162.33-2.75 160.46-1.23 158.58 0.3 155.38 0.3L155.38 0.3Q153.03 0.3 151.31-0.58 149.58-1.45 148.43-3.08 147.28-4.7 146.73-7 146.18-9.3 146.18-12.1L146.18-12.1Q146.18-14.95 147.06-17.38 147.93-19.8 149.51-21.55 151.08-23.3 153.28-24.3 155.48-25.3 158.13-25.3L158.13-25.3Q159.63-25.3 161.26-25.08 162.88-24.85 164.28-24.6 165.68-24.35 166.66-24.13 167.63-23.9 167.78-23.85L167.78-23.85ZM156.33-3.7Q157.58-3.7 158.63-4.55 159.68-5.4 160.46-6.78 161.23-8.15 161.66-9.93 162.08-11.7 162.08-13.55L162.08-13.55 162.08-20.75Q161.58-20.9 160.58-21.1 159.58-21.3 158.78-21.3L158.78-21.3Q156.88-21.3 155.66-20.65 154.43-20 153.68-18.85 152.93-17.7 152.63-16.1 152.33-14.5 152.33-12.6L152.33-12.6Q152.33-10.85 152.43-9.25 152.53-7.65 152.96-6.4 153.38-5.15 154.18-4.42 154.98-3.7 156.33-3.7L156.33-3.7ZM194.63 0L188.98 0 188.98-16.15Q188.98-18.25 188.23-19.53 187.48-20.8 185.68-20.8L185.68-20.8Q184.53-20.8 183.46-20.23 182.38-19.65 181.53-18.55 180.68-17.45 180.16-15.88 179.63-14.3 179.63-12.35L179.63-12.35 179.63 0 173.93 0 173.93-12.6Q173.93-15.6 173.53-17.63 173.13-19.65 172.68-20.9L172.68-20.9Q172.13-22.35 171.48-23.25L171.48-23.25 175.98-25.05Q176.48-24.5 176.98-23.7L176.98-23.7Q177.38-23 177.78-21.98 178.18-20.95 178.43-19.65L178.43-19.65Q179.73-22.65 182.18-23.98 184.63-25.3 187.33-25.3L187.33-25.3Q191.18-25.3 192.91-22.98 194.63-20.65 194.63-16.7L194.63-16.7 194.63 0ZM198.18-20.85L198.18-24.9 202.68-24.9 203.68-30.75 208.38-31.8 208.38-24.9 214.53-24.9 213.83-20.85 208.38-20.85 208.38-6.05Q208.38-4.75 209.08-4.38 209.78-4 210.63-4L210.63-4Q211.33-4 212.03-4.1 212.73-4.2 213.28-4.35L213.28-4.35Q213.93-4.5 214.53-4.7L214.53-4.7 215.48-0.95 215.03-0.8Q214.58-0.6 213.7-0.38 212.83-0.15 211.65 0.03 210.48 0.2 209.08 0.2L209.08 0.2Q207.68 0.2 206.5-0.1 205.33-0.4 204.48-1.07 203.63-1.75 203.15-2.8 202.68-3.85 202.68-5.4L202.68-5.4 202.68-20.85 198.18-20.85ZM216.73-11.85Q216.73-15.2 217.65-17.75 218.58-20.3 220.2-22.03 221.83-23.75 224.03-24.63 226.23-25.5 228.78-25.5L228.78-25.5Q231.03-25.5 232.6-24.95 234.18-24.4 235.18-23.45 236.18-22.5 236.65-21.2 237.13-19.9 237.13-18.4L237.13-18.4Q237.13-16.6 236.13-14.98 235.13-13.35 233.25-12.13 231.38-10.9 228.73-10.18 226.08-9.45 222.78-9.4L222.78-9.4Q222.93-8.25 223.25-7.23 223.58-6.2 224.2-5.43 224.83-4.65 225.83-4.2 226.83-3.75 228.33-3.75L228.33-3.75Q229.43-3.75 230.68-4 231.93-4.25 232.98-4.6L232.98-4.6Q234.23-5 235.43-5.5L235.43-5.5 236.93-1.95Q235.63-1.3 234.13-0.8L234.13-0.8Q232.83-0.35 231.13 0 229.43 0.35 227.53 0.35L227.53 0.35Q224.63 0.35 222.58-0.53 220.53-1.4 219.23-3 217.93-4.6 217.33-6.85 216.73-9.1 216.73-11.85L216.73-11.85ZM228.33-21.6Q226.68-21.6 225.6-20.83 224.53-20.05 223.88-18.82 223.23-17.6 222.95-16.07 222.68-14.55 222.63-13L222.63-13Q225.03-13.1 226.7-13.63 228.38-14.15 229.43-14.93 230.48-15.7 230.95-16.6 231.43-17.5 231.43-18.4L231.43-18.4Q231.43-19.85 230.58-20.73 229.73-21.6 228.33-21.6L228.33-21.6ZM255.72-6.15Q255.77-6.2 256.52-6.63 257.27-7.05 259.02-7.05L259.02-7.05Q260.77-7.05 261.57-6 262.37-4.95 262.37-3.35L262.37-3.35Q262.37-1.3 261.8 0.35 261.22 2 260.27 3.35 259.32 4.7 258.1 5.7 256.87 6.7 255.52 7.35L255.52 7.35 253.37 4.45Q255.32 3 256 1.55 256.67 0.1 256.67-1.25L256.67-1.25Q256.67-2.7 256.22-3.95 255.77-5.2 255.72-6.15L255.72-6.15ZM302.52 0L296.87 0 296.87-16.15Q296.87-18.25 296.12-19.53 295.37-20.8 293.57-20.8L293.57-20.8Q292.42-20.8 291.34-20.23 290.27-19.65 289.42-18.55 288.57-17.45 288.04-15.88 287.52-14.3 287.52-12.35L287.52-12.35 287.52 0 281.82 0 281.82-12.6Q281.82-15.6 281.42-17.63 281.02-19.65 280.57-20.9L280.57-20.9Q280.02-22.35 279.37-23.25L279.37-23.25 283.87-25.05Q284.37-24.5 284.87-23.7L284.87-23.7Q285.27-23 285.67-21.98 286.07-20.95 286.32-19.65L286.32-19.65Q287.62-22.65 290.07-23.98 292.52-25.3 295.22-25.3L295.22-25.3Q299.07-25.3 300.79-22.98 302.52-20.65 302.52-16.7L302.52-16.7 302.52 0ZM318.71-25.5Q324.46-25.5 327.06-22.1 329.66-18.7 329.66-12.75L329.66-12.75Q329.66-9.95 328.96-7.53 328.26-5.1 326.84-3.33 325.41-1.55 323.26-0.53 321.11 0.5 318.26 0.5L318.26 0.5Q315.41 0.5 313.34-0.38 311.26-1.25 309.91-2.9 308.56-4.55 307.94-6.9 307.31-9.25 307.31-12.2L307.31-12.2Q307.31-15.05 308.01-17.48 308.71-19.9 310.14-21.68 311.56-23.45 313.71-24.48 315.86-25.5 318.71-25.5L318.71-25.5ZM318.21-21.3Q316.76-21.3 315.84-20.65 314.91-20 314.39-18.82 313.86-17.65 313.66-16.07 313.46-14.5 313.46-12.7L313.46-12.7Q313.46-10.85 313.69-9.2 313.91-7.55 314.51-6.33 315.11-5.1 316.14-4.4 317.16-3.7 318.76-3.7L318.76-3.7Q320.21-3.7 321.14-4.35 322.06-5 322.59-6.18 323.11-7.35 323.31-8.9 323.51-10.45 323.51-12.25L323.51-12.25Q323.51-14.1 323.29-15.75 323.06-17.4 322.46-18.65 321.86-19.9 320.84-20.6 319.81-21.3 318.21-21.3L318.21-21.3ZM331.91-20.85L331.91-24.9 336.41-24.9 337.41-30.75 342.11-31.8 342.11-24.9 348.26-24.9 347.56-20.85 342.11-20.85 342.11-6.05Q342.11-4.75 342.81-4.38 343.51-4 344.36-4L344.36-4Q345.06-4 345.76-4.1 346.46-4.2 347.01-4.35L347.01-4.35Q347.66-4.5 348.26-4.7L348.26-4.7 349.21-0.95 348.76-0.8Q348.31-0.6 347.44-0.38 346.56-0.15 345.39 0.03 344.21 0.2 342.81 0.2L342.81 0.2Q341.41 0.2 340.24-0.1 339.06-0.4 338.21-1.07 337.36-1.75 336.89-2.8 336.41-3.85 336.41-5.4L336.41-5.4 336.41-20.85 331.91-20.85ZM363.86-19.7Q362.96-19.7 362.06-19.25 361.16-18.8 360.46-18.03 359.76-17.25 359.31-16.15 358.86-15.05 358.86-13.7L358.86-13.7 358.86 0 353.16 0 353.16-12.6Q353.16-15.6 352.76-17.63 352.36-19.65 351.91-20.9L351.91-20.9Q351.36-22.35 350.71-23.25L350.71-23.25 355.21-25.05Q355.66-24.5 356.16-23.7L356.16-23.7Q356.56-23 356.96-22.05 357.36-21.1 357.61-19.8L357.61-19.8Q358.61-22.7 360.51-23.98 362.41-25.25 364.81-25.25L364.81-25.25Q365.96-25.25 366.96-24.98 367.96-24.7 367.91-24.7L367.91-24.7 366.31-19.15Q366.36-19.15 365.73-19.43 365.11-19.7 363.86-19.7L363.86-19.7ZM368.16-11.85Q368.16-15.2 369.08-17.75 370.01-20.3 371.63-22.03 373.26-23.75 375.46-24.63 377.66-25.5 380.21-25.5L380.21-25.5Q382.46-25.5 384.03-24.95 385.61-24.4 386.61-23.45 387.61-22.5 388.08-21.2 388.56-19.9 388.56-18.4L388.56-18.4Q388.56-16.6 387.56-14.98 386.56-13.35 384.68-12.13 382.81-10.9 380.16-10.18 377.51-9.45 374.21-9.4L374.21-9.4Q374.36-8.25 374.68-7.23 375.01-6.2 375.63-5.43 376.26-4.65 377.26-4.2 378.26-3.75 379.76-3.75L379.76-3.75Q380.86-3.75 382.11-4 383.36-4.25 384.41-4.6L384.41-4.6Q385.66-5 386.86-5.5L386.86-5.5 388.36-1.95Q387.06-1.3 385.56-0.8L385.56-0.8Q384.26-0.35 382.56 0 380.86 0.35 378.96 0.35L378.96 0.35Q376.06 0.35 374.01-0.53 371.96-1.4 370.66-3 369.36-4.6 368.76-6.85 368.16-9.1 368.16-11.85L368.16-11.85ZM379.76-21.6Q378.11-21.6 377.03-20.83 375.96-20.05 375.31-18.82 374.66-17.6 374.38-16.07 374.11-14.55 374.06-13L374.06-13Q376.46-13.1 378.13-13.63 379.81-14.15 380.86-14.93 381.91-15.7 382.38-16.6 382.86-17.5 382.86-18.4L382.86-18.4Q382.86-19.85 382.01-20.73 381.16-21.6 379.76-21.6L379.76-21.6ZM412.2 10.05L406.5 11.05 406.5-12.6Q406.5-15.6 406.1-17.63 405.7-19.65 405.25-20.9L405.25-20.9Q404.7-22.35 404.05-23.25L404.05-23.25 408.55-25.05Q409.15-24.45 409.65-23.55L409.65-23.55Q410.05-22.8 410.45-21.73 410.85-20.65 411.05-19.2L411.05-19.2Q411.9-22.2 413.75-23.75 415.6-25.3 418.9-25.3L418.9-25.3Q421.25-25.3 422.98-24.43 424.7-23.55 425.83-21.93 426.95-20.3 427.5-18 428.05-15.7 428.05-12.9L428.05-12.9Q428.05-10.05 427.2-7.63 426.35-5.2 424.78-3.45 423.2-1.7 421-0.7 418.8 0.3 416.1 0.3L416.1 0.3Q415.15 0.3 414.18 0.2 413.2 0.1 412.2 0L412.2 0 412.2 10.05ZM417.95-21.3Q416.7-21.3 415.65-20.45 414.6-19.6 413.83-18.2 413.05-16.8 412.63-15.05 412.2-13.3 412.2-11.45L412.2-11.45 412.2-4.25Q412.7-4.1 413.7-3.9 414.7-3.7 415.45-3.7L415.45-3.7Q417.35-3.7 418.6-4.35 419.85-5 420.6-6.15 421.35-7.3 421.65-8.9 421.95-10.5 421.95-12.4L421.95-12.4Q421.95-14.15 421.85-15.75 421.75-17.35 421.33-18.6 420.9-19.85 420.1-20.58 419.3-21.3 417.95-21.3L417.95-21.3ZM444.25-19.7Q443.35-19.7 442.45-19.25 441.55-18.8 440.85-18.03 440.15-17.25 439.7-16.15 439.25-15.05 439.25-13.7L439.25-13.7 439.25 0 433.55 0 433.55-12.6Q433.55-15.6 433.15-17.63 432.75-19.65 432.3-20.9L432.3-20.9Q431.75-22.35 431.1-23.25L431.1-23.25 435.6-25.05Q436.05-24.5 436.55-23.7L436.55-23.7Q436.95-23 437.35-22.05 437.75-21.1 438-19.8L438-19.8Q439-22.7 440.9-23.98 442.8-25.25 445.2-25.25L445.2-25.25Q446.35-25.25 447.35-24.98 448.35-24.7 448.3-24.7L448.3-24.7 446.7-19.15Q446.75-19.15 446.12-19.43 445.5-19.7 444.25-19.7L444.25-19.7ZM448.55-11.85Q448.55-15.2 449.47-17.75 450.4-20.3 452.02-22.03 453.65-23.75 455.85-24.63 458.05-25.5 460.6-25.5L460.6-25.5Q462.85-25.5 464.42-24.95 466-24.4 467-23.45 468-22.5 468.47-21.2 468.95-19.9 468.95-18.4L468.95-18.4Q468.95-16.6 467.95-14.98 466.95-13.35 465.07-12.13 463.2-10.9 460.55-10.18 457.9-9.45 454.6-9.4L454.6-9.4Q454.75-8.25 455.07-7.23 455.4-6.2 456.02-5.43 456.65-4.65 457.65-4.2 458.65-3.75 460.15-3.75L460.15-3.75Q461.25-3.75 462.5-4 463.75-4.25 464.8-4.6L464.8-4.6Q466.05-5 467.25-5.5L467.25-5.5 468.75-1.95Q467.45-1.3 465.95-0.8L465.95-0.8Q464.65-0.35 462.95 0 461.25 0.35 459.35 0.35L459.35 0.35Q456.45 0.35 454.4-0.53 452.35-1.4 451.05-3 449.75-4.6 449.15-6.85 448.55-9.1 448.55-11.85L448.55-11.85ZM460.15-21.6Q458.5-21.6 457.42-20.83 456.35-20.05 455.7-18.82 455.05-17.6 454.77-16.07 454.5-14.55 454.45-13L454.45-13Q456.85-13.1 458.52-13.63 460.2-14.15 461.25-14.93 462.3-15.7 462.77-16.6 463.25-17.5 463.25-18.4L463.25-18.4Q463.25-19.85 462.4-20.73 461.55-21.6 460.15-21.6L460.15-21.6ZM483.59-25.5Q489.34-25.5 491.94-22.1 494.54-18.7 494.54-12.75L494.54-12.75Q494.54-9.95 493.84-7.53 493.14-5.1 491.72-3.33 490.29-1.55 488.14-0.53 485.99 0.5 483.14 0.5L483.14 0.5Q480.29 0.5 478.22-0.38 476.14-1.25 474.79-2.9 473.44-4.55 472.82-6.9 472.19-9.25 472.19-12.2L472.19-12.2Q472.19-15.05 472.89-17.48 473.59-19.9 475.02-21.68 476.44-23.45 478.59-24.48 480.74-25.5 483.59-25.5L483.59-25.5ZM483.09-21.3Q481.64-21.3 480.72-20.65 479.79-20 479.27-18.82 478.74-17.65 478.54-16.07 478.34-14.5 478.34-12.7L478.34-12.7Q478.34-10.85 478.57-9.2 478.79-7.55 479.39-6.33 479.99-5.1 481.02-4.4 482.04-3.7 483.64-3.7L483.64-3.7Q485.09-3.7 486.02-4.35 486.94-5 487.47-6.18 487.99-7.35 488.19-8.9 488.39-10.45 488.39-12.25L488.39-12.25Q488.39-14.1 488.17-15.75 487.94-17.4 487.34-18.65 486.74-19.9 485.72-20.6 484.69-21.3 483.09-21.3L483.09-21.3ZM516.24-22.1L513.04-19.05Q512.29-19.9 511.52-20.5 510.74-21.1 509.44-21.1L509.44-21.1Q508.69-21.1 507.77-20.88 506.84-20.65 506.04-19.78 505.24-18.9 504.72-17.2 504.19-15.5 504.19-12.6L504.19-12.6Q504.19-9.65 504.72-7.93 505.24-6.2 506.07-5.25 506.89-4.3 507.84-4.03 508.79-3.75 509.69-3.75L509.69-3.75Q510.39-3.75 511.14-3.88 511.89-4 512.59-4.17 513.29-4.35 513.82-4.5 514.34-4.65 514.59-4.75L514.59-4.75 515.99-1.15Q515.84-1.1 515.32-0.85 514.79-0.6 513.89-0.35 512.99-0.1 511.74 0.13 510.49 0.35 508.94 0.35L508.94 0.35Q506.04 0.35 503.99-0.53 501.94-1.4 500.62-3 499.29-4.6 498.67-6.85 498.04-9.1 498.04-11.85L498.04-11.85Q498.04-15.15 498.92-17.7 499.79-20.25 501.34-21.98 502.89-23.7 504.99-24.6 507.09-25.5 509.49-25.5L509.49-25.5Q511.84-25.5 513.47-24.6 515.09-23.7 516.24-22.1L516.24-22.1ZM536.24-22.1L533.04-19.05Q532.29-19.9 531.51-20.5 530.74-21.1 529.44-21.1L529.44-21.1Q528.69-21.1 527.76-20.88 526.84-20.65 526.04-19.78 525.24-18.9 524.71-17.2 524.19-15.5 524.19-12.6L524.19-12.6Q524.19-9.65 524.71-7.93 525.24-6.2 526.06-5.25 526.89-4.3 527.84-4.03 528.79-3.75 529.69-3.75L529.69-3.75Q530.39-3.75 531.14-3.88 531.89-4 532.59-4.17 533.29-4.35 533.81-4.5 534.34-4.65 534.59-4.75L534.59-4.75 535.99-1.15Q535.84-1.1 535.31-0.85 534.79-0.6 533.89-0.35 532.99-0.1 531.74 0.13 530.49 0.35 528.94 0.35L528.94 0.35Q526.04 0.35 523.99-0.53 521.94-1.4 520.61-3 519.29-4.6 518.66-6.85 518.04-9.1 518.04-11.85L518.04-11.85Q518.04-15.15 518.91-17.7 519.79-20.25 521.34-21.98 522.89-23.7 524.99-24.6 527.09-25.5 529.49-25.5L529.49-25.5Q531.84-25.5 533.46-24.6 535.09-23.7 536.24-22.1L536.24-22.1ZM554.84-12.7L554.84-24.9 560.54-24.9 560.54-12.05Q560.54-9.05 560.91-7.03 561.29-5 561.74-3.75L561.74-3.75Q562.29-2.25 562.94-1.4L562.94-1.4 558.49 0.4Q557.89-0.15 557.39-1L557.39-1Q556.99-1.7 556.56-2.73 556.14-3.75 555.99-5.15L555.99-5.15Q554.64-2.2 552.19-0.95 549.74 0.3 547.09 0.3L547.09 0.3Q543.14 0.3 541.46-2 539.79-4.3 539.79-8.3L539.79-8.3 539.79-24.9 545.49-24.9 545.49-8.4Q545.49-6.3 546.24-5.1 546.99-3.9 548.79-3.9L548.79-3.9Q549.89-3.9 550.96-4.53 552.04-5.15 552.91-6.3 553.79-7.45 554.31-9.08 554.84-10.7 554.84-12.7L554.84-12.7ZM573.63 10.05L567.93 11.05 567.93-12.6Q567.93-15.6 567.53-17.63 567.13-19.65 566.68-20.9L566.68-20.9Q566.13-22.35 565.48-23.25L565.48-23.25 569.98-25.05Q570.58-24.45 571.08-23.55L571.08-23.55Q571.48-22.8 571.88-21.73 572.28-20.65 572.48-19.2L572.48-19.2Q573.33-22.2 575.18-23.75 577.03-25.3 580.33-25.3L580.33-25.3Q582.68-25.3 584.41-24.43 586.13-23.55 587.26-21.93 588.38-20.3 588.93-18 589.48-15.7 589.48-12.9L589.48-12.9Q589.48-10.05 588.63-7.63 587.78-5.2 586.21-3.45 584.63-1.7 582.43-0.7 580.23 0.3 577.53 0.3L577.53 0.3Q576.58 0.3 575.61 0.2 574.63 0.1 573.63 0L573.63 0 573.63 10.05ZM579.38-21.3Q578.13-21.3 577.08-20.45 576.03-19.6 575.26-18.2 574.48-16.8 574.06-15.05 573.63-13.3 573.63-11.45L573.63-11.45 573.63-4.25Q574.13-4.1 575.13-3.9 576.13-3.7 576.88-3.7L576.88-3.7Q578.78-3.7 580.03-4.35 581.28-5 582.03-6.15 582.78-7.3 583.08-8.9 583.38-10.5 583.38-12.4L583.38-12.4Q583.38-14.15 583.28-15.75 583.18-17.35 582.76-18.6 582.33-19.85 581.53-20.58 580.73-21.3 579.38-21.3L579.38-21.3ZM614.63-23.85L614.63-12.05Q614.63-9.05 615-7.03 615.38-5 615.83-3.75L615.83-3.75Q616.38-2.25 617.03-1.4L617.03-1.4 612.58 0.4Q611.93-0.25 611.38-1.15L611.38-1.15Q610.93-1.95 610.53-3.08 610.13-4.2 610.03-5.75L610.03-5.75Q609.18-2.75 607.3-1.23 605.43 0.3 602.23 0.3L602.23 0.3Q599.88 0.3 598.15-0.58 596.43-1.45 595.28-3.08 594.13-4.7 593.58-7 593.03-9.3 593.03-12.1L593.03-12.1Q593.03-14.95 593.9-17.38 594.78-19.8 596.36-21.55 597.93-23.3 600.13-24.3 602.33-25.3 604.98-25.3L604.98-25.3Q606.48-25.3 608.11-25.08 609.73-24.85 611.13-24.6 612.53-24.35 613.5-24.13 614.48-23.9 614.63-23.85L614.63-23.85ZM603.18-3.7Q604.43-3.7 605.48-4.55 606.53-5.4 607.3-6.78 608.08-8.15 608.5-9.93 608.93-11.7 608.93-13.55L608.93-13.55 608.93-20.75Q608.43-20.9 607.43-21.1 606.43-21.3 605.63-21.3L605.63-21.3Q603.73-21.3 602.5-20.65 601.28-20 600.53-18.85 599.78-17.7 599.48-16.1 599.18-14.5 599.18-12.6L599.18-12.6Q599.18-10.85 599.28-9.25 599.38-7.65 599.8-6.4 600.23-5.15 601.03-4.42 601.83-3.7 603.18-3.7L603.18-3.7ZM618.58-20.85L618.58-24.9 623.08-24.9 624.08-30.75 628.78-31.8 628.78-24.9 634.93-24.9 634.23-20.85 628.78-20.85 628.78-6.05Q628.78-4.75 629.48-4.38 630.18-4 631.03-4L631.03-4Q631.73-4 632.43-4.1 633.13-4.2 633.68-4.35L633.68-4.35Q634.33-4.5 634.93-4.7L634.93-4.7 635.88-0.95 635.43-0.8Q634.98-0.6 634.1-0.38 633.23-0.15 632.05 0.03 630.88 0.2 629.48 0.2L629.48 0.2Q628.08 0.2 626.9-0.1 625.73-0.4 624.88-1.07 624.03-1.75 623.55-2.8 623.08-3.85 623.08-5.4L623.08-5.4 623.08-20.85 618.58-20.85ZM644.62 0.2Q641.97 0.2 640.57-1.38 639.17-2.95 639.17-5.45L639.17-5.45 639.17-24.9 644.87-24.9 644.87-5.95Q644.87-4.8 645.22-4.4 645.57-4 646.27-4L646.27-4Q646.47-4 646.7-4 646.92-4 647.12-4.05L647.12-4.05Q647.32-4.05 647.57-4.1L647.57-4.1 648.17-0.5Q647.82-0.3 647.27-0.15L647.27-0.15Q646.82 0 646.15 0.1 645.47 0.2 644.62 0.2L644.62 0.2ZM642.12-36Q643.72-36 644.57-35.05 645.42-34.1 645.42-32.6L645.42-32.6Q645.42-31.1 644.55-30.1 643.67-29.1 641.97-29.1L641.97-29.1Q640.37-29.1 639.5-30.08 638.62-31.05 638.62-32.45L638.62-32.45Q638.62-34 639.5-35 640.37-36 642.12-36L642.12-36ZM662.07-25.5Q667.82-25.5 670.42-22.1 673.02-18.7 673.02-12.75L673.02-12.75Q673.02-9.95 672.32-7.53 671.62-5.1 670.2-3.33 668.77-1.55 666.62-0.53 664.47 0.5 661.62 0.5L661.62 0.5Q658.77 0.5 656.7-0.38 654.62-1.25 653.27-2.9 651.92-4.55 651.3-6.9 650.67-9.25 650.67-12.2L650.67-12.2Q650.67-15.05 651.37-17.48 652.07-19.9 653.5-21.68 654.92-23.45 657.07-24.48 659.22-25.5 662.07-25.5L662.07-25.5ZM661.57-21.3Q660.12-21.3 659.2-20.65 658.27-20 657.75-18.82 657.22-17.65 657.02-16.07 656.82-14.5 656.82-12.7L656.82-12.7Q656.82-10.85 657.05-9.2 657.27-7.55 657.87-6.33 658.47-5.1 659.5-4.4 660.52-3.7 662.12-3.7L662.12-3.7Q663.57-3.7 664.5-4.35 665.42-5 665.95-6.18 666.47-7.35 666.67-8.9 666.87-10.45 666.87-12.25L666.87-12.25Q666.87-14.1 666.65-15.75 666.42-17.4 665.82-18.65 665.22-19.9 664.2-20.6 663.17-21.3 661.57-21.3L661.57-21.3ZM699.17 0L693.52 0 693.52-16.15Q693.52-18.25 692.77-19.53 692.02-20.8 690.22-20.8L690.22-20.8Q689.07-20.8 687.99-20.23 686.92-19.65 686.07-18.55 685.22-17.45 684.69-15.88 684.17-14.3 684.17-12.35L684.17-12.35 684.17 0 678.47 0 678.47-12.6Q678.47-15.6 678.07-17.63 677.67-19.65 677.22-20.9L677.22-20.9Q676.67-22.35 676.02-23.25L676.02-23.25 680.52-25.05Q681.02-24.5 681.52-23.7L681.52-23.7Q681.92-23 682.32-21.98 682.72-20.95 682.97-19.65L682.97-19.65Q684.27-22.65 686.72-23.98 689.17-25.3 691.87-25.3L691.87-25.3Q695.72-25.3 697.44-22.98 699.17-20.65 699.17-16.7L699.17-16.7 699.17 0Z" opacity="1" transform="matrix(1,0,0,1,0,0)" fill="#ffffff" class="undefined-text-1" data-fill-palette-color="secondary" id="text-1"></path></svg></g></svg></g></svg></g></svg></g><g><svg viewBox="0 0 165.00927360604618 165.00927360604618" height="165.00927360604618" width="165.00927360604618"><g><svg></svg></g><g id="icon-0"><svg viewBox="0 0 165.00927360604618 165.00927360604618" height="165.00927360604618" width="165.00927360604618"><g><rect width="150.036209889942" height="150.036209889942" x="7.486531858052089" y="7.486531858052089" fill="#ffffff" data-fill-palette-color="accent"></rect><rect width="150.036209889942" height="150.036209889942" x="14.973063716104184" y="-5.329070518200751e-15" fill="#ffffff" opacity="0.5" data-fill-palette-color="accent"></rect></g><g transform="matrix(1,0,0,1,21.39009102300598,21.39009102300598)"><svg viewBox="0 0 122.22909156003422 122.22909156003422" height="122.22909156003422" width="122.22909156003422"><g><svg xmlns="http://www.w3.org/2000/svg" xmlns:xlink="http://www.w3.org/1999/xlink" version="1.1" x="0" y="0" viewBox="5.672000885009766 5.631004333496094 88.63999938964844 88.63999938964844" enable-background="new 0 0 100 100" xml:space="preserve" height="122.22909156003422" width="122.22909156003422" class="icon-s-0" data-fill-palette-color="background" id="s-0"><path d="M49.992 94.271c-24.438 0-44.32-19.882-44.32-44.32 0-24.438 19.882-44.32 44.32-44.32 24.438 0 44.32 19.882 44.32 44.32C94.312 74.389 74.431 94.271 49.992 94.271zM49.992 14.494c-19.55 0-35.456 15.906-35.456 35.456 0 19.551 15.906 35.456 35.456 35.456 19.551 0 35.456-15.905 35.456-35.456C85.448 30.4 69.543 14.494 49.992 14.494z" fill="#046380" data-fill-palette-color="background"></path><polygon points="73.734,43.619 56.324,43.619 56.324,26.208 43.661,26.208 43.661,43.619 26.25,43.619 26.25,56.282 43.661,56.282   43.661,73.692 56.324,73.692 56.324,56.282 73.734,56.282 " fill="#046380" data-fill-palette-color="background"></polygon></svg></g></svg></g></svg></g></svg></g></svg></g><defs></defs></svg><rect width="395.52" height="114.24549993838731" fill="none" stroke="none" visibility="hidden"></rect></g></svg></g></svg>