<?xml version="1.0" encoding="UTF-8"?><svg xmlns="http://www.w3.org/2000/svg" viewBox="0 0 64 64"><defs><style>.cls-1{fill:none;}.cls-2{fill:#57585f;}</style></defs><g id="BG"><rect class="cls-1" width="64" height="64"/></g><g id="Layer_1"><path class="cls-2" d="M32,3c9.93,0,18,7.66,18,17.07,0,3.42-1.06,6.72-3.08,9.55l-.05,.07-.05,.08c-3.64,5.82-5.83,10.93-6.56,15.24H23.74c-.95-5.67-4.23-11.59-6.31-14.91l-.06-.1-.07-.1c-2.15-2.89-3.29-6.29-3.29-9.82C14,10.66,22.07,3,32,3m0-3C20.4,0,11,8.98,11,20.07c0,4.33,1.44,8.34,3.88,11.62,2.93,4.67,6.12,11.2,6.12,16.32h22c0-5.41,3.43-11.95,6.36-16.65,2.29-3.22,3.64-7.1,3.64-11.29C53,8.98,43.6,0,32,0h0Z"/><rect class="cls-2" x="21" y="51" width="22" height="3" rx="1.5" ry="1.5"/><rect class="cls-2" x="21" y="56" width="22" height="3" rx="1.5" ry="1.5"/><rect class="cls-2" x="23" y="61" width="18" height="3" rx="1.5" ry="1.5"/></g></svg>