<svg xmlns="http://www.w3.org/2000/svg" viewBox="0 0 64 64"><defs><style>.cls-1{fill:none;}.cls-2{fill:#57585f;}</style></defs><g id="BG_Placeholder" data-name="BG Placeholder"><rect class="cls-1" width="64" height="64"/></g><g id="Layer_2" data-name="Layer 2"><path class="cls-2" d="M50,3V27h3V38H50V56.64L32.48,60.92,14,56.62V38H11V27h3V3H50m3-3H11V24H8V41h3V59l21.5,5L53,59V41h3V24H53V0Z"/><path class="cls-2" d="M53,27V38H11V27H53m3-3H8V41H56V24Z"/><path class="cls-2" d="M8,31V41H4.33l1.48-4,.39-1-.39-1L4.33,31H8m3-3H0l3,8L0,44H11V28Z"/><path class="cls-2" d="M59.67,31l-1.48,4-.39,1,.39,1,1.48,4H56V31h3.67M64,28H53V44H64l-3-8,3-8Z"/></g></svg>