<svg xmlns="http://www.w3.org/2000/svg" viewBox="0 0 64 64"><defs><style>.cls-1{fill:none;}.cls-2{fill:#57585f;}</style></defs><g id="BG_Placeholder" data-name="BG Placeholder"><rect class="cls-1" width="64" height="64"/></g><g id="Layer_2" data-name="Layer 2"><path class="cls-2" d="M32,3A29,29,0,1,1,3,32,29,29,0,0,1,32,3m0-3A32,32,0,1,0,64,32,32,32,0,0,0,32,0Z"/><path class="cls-2" d="M32,11A21,21,0,1,1,11,32,21,21,0,0,1,32,11m0-3A24,24,0,1,0,56,32,24,24,0,0,0,32,8Z"/><path class="cls-2" d="M37.67,22h.23a6.41,6.41,0,0,1,4.25,1.92,6.82,6.82,0,0,1,1.71,3C45.17,33.86,36.94,41,32,44c-4.94-3-13.17-10.12-11.86-17a6.82,6.82,0,0,1,1.71-3,6.36,6.36,0,0,1,2.95-1.72,6.5,6.5,0,0,1,1.3-.2h.27A5.84,5.84,0,0,1,32,26.13,5.93,5.93,0,0,1,37.67,22m0-3h0A8.87,8.87,0,0,0,32,21a9,9,0,0,0-2.81-1.54,9.33,9.33,0,0,0-2.8-.46H26a9.57,9.57,0,0,0-1.93.29,9.39,9.39,0,0,0-4.36,2.54,9.91,9.91,0,0,0-2.46,4.32l0,.11,0,.11c-.74,3.93.72,8.24,4.23,12.47a37.87,37.87,0,0,0,9,7.69l1.55.94,1.55-.94a37.87,37.87,0,0,0,9-7.69c3.51-4.23,5-8.54,4.23-12.47l0-.11,0-.11a10,10,0,0,0-2.46-4.33A9.39,9.39,0,0,0,40,19.32,8.67,8.67,0,0,0,38,19Z"/></g></svg>