<svg xmlns="http://www.w3.org/2000/svg" viewBox="0 0 64 64"><defs><style>.cls-1{fill:none;}.cls-2{fill:#57585f;}</style></defs><g id="BG_Placeholder" data-name="BG Placeholder"><rect class="cls-1" width="64" height="64"/></g><g id="Layer_2" data-name="Layer 2"><path class="cls-2" d="M10.5,20.86a3.86,3.86,0,1,1-3.86,3.85,3.86,3.86,0,0,1,3.86-3.85m0-3a6.86,6.86,0,1,0,6.86,6.85,6.86,6.86,0,0,0-6.86-6.85Z"/><path class="cls-2" d="M13.48,35.43A4.53,4.53,0,0,1,18,40v3.19H3V40a4.53,4.53,0,0,1,4.52-4.52h6m0-3h-6A7.54,7.54,0,0,0,0,40v6.19H21V40a7.54,7.54,0,0,0-7.52-7.52Z"/><path class="cls-2" d="M53.5,20.86a3.86,3.86,0,1,1-3.86,3.85,3.86,3.86,0,0,1,3.86-3.85m0-3a6.86,6.86,0,1,0,6.86,6.85,6.86,6.86,0,0,0-6.86-6.85Z"/><path class="cls-2" d="M56.48,35.43A4.53,4.53,0,0,1,61,40v3.19H46V40a4.53,4.53,0,0,1,4.52-4.52h6m0-3h-6A7.54,7.54,0,0,0,43,40v6.19H64V40a7.54,7.54,0,0,0-7.52-7.52Z"/><path class="cls-2" d="M31.73,38.71a3.86,3.86,0,1,1-3.85,3.86,3.86,3.86,0,0,1,3.85-3.86m0-3a6.86,6.86,0,1,0,6.86,6.86,6.86,6.86,0,0,0-6.86-6.86Z"/><path class="cls-2" d="M34.71,53.28a4.52,4.52,0,0,1,4.52,4.53V61h-15V57.81a4.53,4.53,0,0,1,4.53-4.53h5.95m0-3H28.76a7.55,7.55,0,0,0-7.53,7.53V64h21V57.81a7.55,7.55,0,0,0-7.52-7.53Z"/><path class="cls-2" d="M31.73,3a3.86,3.86,0,1,1-3.85,3.86A3.86,3.86,0,0,1,31.73,3m0-3a6.86,6.86,0,1,0,6.86,6.86A6.86,6.86,0,0,0,31.73,0Z"/><path class="cls-2" d="M34.71,17.57a4.52,4.52,0,0,1,4.52,4.52v3.2h-15v-3.2a4.53,4.53,0,0,1,4.53-4.52h5.95m0-3H28.76a7.55,7.55,0,0,0-7.53,7.52v6.2h21v-6.2a7.54,7.54,0,0,0-7.52-7.52Z"/></g></svg>